<svg xmlns="http://www.w3.org/2000/svg" width="131" height="43" fill="none" viewBox="0 0 131 43">
  <path fill="#4D1620" d="M63.133 13.503H54.6c-.194 0-.38.077-.517.214-.137.138-.215.324-.215.518v1.909h7.429c.194 0 .38.077.517.214s.214.323.214.517v3.548c0 .194-.077.38-.214.517s-.323.214-.517.214H54.6c-.194 0-.38.077-.517.214-.137.138-.215.324-.215.518v5.588c0 .096-.018.19-.055.28-.037.088-.09.169-.159.237-.068.068-.148.121-.237.158-.089.037-.184.056-.28.056h-4.532c-.095 0-.19-.02-.28-.056-.088-.037-.169-.09-.237-.158-.068-.068-.121-.149-.158-.238-.037-.088-.056-.183-.056-.28V8.925c0-.194.077-.38.214-.517.138-.137.324-.214.517-.214h14.528c.194 0 .38.077.517.214s.214.323.214.517v3.848c0 .194-.077.38-.214.517s-.323.214-.517.214zM72.32 28.203h-4.75c-.194 0-.38-.076-.517-.214-.137-.137-.214-.323-.214-.517V8.924c0-.194.077-.38.214-.517s.323-.214.517-.214h4.748c.194 0 .38.077.517.214s.214.323.214.517v18.548c0 .194-.077.38-.214.517-.136.137-.322.214-.516.214zM82.585 22.893h8.171c.195 0 .381.078.518.215.138.137.215.324.215.518v3.844c0 .194-.077.38-.215.518-.137.137-.323.214-.518.214H77.11c-.097 0-.192-.019-.28-.056-.09-.036-.17-.09-.238-.158-.069-.069-.122-.15-.16-.238-.036-.089-.055-.184-.055-.28V8.927c0-.096.019-.191.056-.28.037-.09.09-.17.159-.238.068-.068.148-.122.237-.159.09-.037.184-.056.28-.056h4.744c.096 0 .192.02.28.056.09.037.17.091.238.159.068.068.122.149.159.238.037.089.056.184.056.28v13.966zM109.563 13.205h-9.309c-.205 0-.401.082-.546.227-.145.145-.227.341-.227.546v1.65l.003.006.005.002h8.729c.205 0 .402.082.547.227.145.145.226.341.226.546v3.044c0 .205-.081.402-.226.547-.145.145-.342.226-.547.226h-7.96c-.205 0-.401.082-.546.227-.145.145-.227.341-.227.546v1.897h10.564c.205 0 .402.081.547.226.145.145.226.342.226.547v3.764c0 .205-.081.402-.226.547-.145.145-.342.226-.547.226h-15.8c-.205 0-.401-.081-.546-.226-.145-.145-.227-.342-.227-.547V8.966c0-.205.082-.401.227-.546.145-.145.341-.227.546-.227h15.314c.205 0 .402.082.547.227.145.145.226.341.226.546v3.463c.001.102-.019.203-.058.297-.038.094-.095.18-.167.252-.072.072-.157.129-.251.168-.094.04-.195.06-.297.06zM124.35 14.133c-.141.002-.28-.037-.4-.111-.119-.075-.215-.183-.275-.311-.404-.919-1.146-1.377-2.274-1.377-1.2 0-2.101.51-2.101 1.199 0 .51.331.81 1.14 1.05l3.81 1.11c4.587 1.32 6.301 2.968 6.301 6.09 0 4.11-3.541 6.87-8.851 6.87-3.15 0-5.789-1.02-7.44-2.851-.869-.971-1.324-1.963-1.533-3.46-.014-.103-.006-.208.024-.308s.082-.193.15-.271c.069-.079.154-.142.249-.185.095-.043.199-.065.303-.065h4.706c.164.001.324.058.452.16.129.103.219.245.257.405.285 1.144 1.314 1.774 2.952 1.774 1.53 0 2.61-.63 2.61-1.53 0-.6-.451-.96-1.68-1.349l-3.96-1.23c-2.221-.69-3.45-1.41-4.317-2.46-.76-.954-1.172-2.139-1.17-3.359 0-3.69 3.33-6.18 8.22-6.18 3.151 0 5.52.93 6.841 2.67.674.844.991 1.648 1.15 2.888.014.104.006.209-.024.309s-.081.192-.15.27c-.068.08-.153.142-.248.186-.095.043-.198.066-.302.066h-4.44z"/>
  <path fill="#C20F2F" d="M68.813 38.868c-.069 0-.136-.023-.19-.066-.054-.042-.092-.102-.108-.168l-.953-3.956c.01.32.01.33.01.525 0 .093 0 .35.012.762v2.596c0 .081-.033.16-.09.217-.058.058-.136.09-.218.09h-1.27c-.081 0-.16-.032-.217-.09-.058-.057-.09-.136-.09-.217v-6.252c0-.082.032-.16.09-.218.058-.057.136-.09.218-.09h2.219c.069 0 .135.023.19.066.053.042.091.101.108.168l.849 3.452.848-3.452c.017-.067.055-.126.11-.168.053-.043.12-.066.188-.066h2.222c.082 0 .16.033.218.09.058.058.09.136.09.218v6.253c0 .082-.032.16-.09.218-.058.057-.136.09-.218.09h-1.27c-.08 0-.159-.033-.217-.09-.057-.058-.09-.136-.09-.218v-2.39l.011-.675c0-.247 0-.35.01-.81l-.952 3.956c-.016.067-.054.126-.108.169-.054.042-.121.066-.19.066h-1.122v-.01zM64.89 35.48c0 2.081-1.462 3.542-3.54 3.542-2.08 0-3.531-1.462-3.531-3.593 0-2.13 1.44-3.583 3.53-3.583 2.13 0 3.542 1.452 3.542 3.635zm-4.941-.05c0 1.142.54 1.873 1.411 1.873.845 0 1.4-.73 1.4-1.853 0-1.154-.54-1.89-1.41-1.89-.872 0-1.401.738-1.401 1.87zM49.861 37.187v1.382c0 .081-.032.159-.09.216-.057.058-.135.09-.216.09H48.18c-.081 0-.16-.032-.217-.09-.057-.057-.09-.135-.09-.216v-1.376c0-.081.033-.16.09-.217.058-.057.136-.09.217-.09h1.376c.08 0 .158.032.215.088.057.057.09.133.091.213zM55.288 34.54c-.064 0-.127-.019-.18-.056-.053-.037-.092-.09-.113-.15-.073-.229-.219-.427-.415-.566-.196-.138-.432-.21-.672-.202-.794 0-1.339.752-1.339 1.843 0 1.092.587 1.89 1.37 1.89.55 0 .913-.313 1.065-.898.018-.065.056-.122.108-.162.053-.041.118-.063.185-.063H56.8c.044 0 .088.01.129.028.04.02.076.047.104.08.029.035.05.074.062.117.012.043.014.088.007.132-.068.456-.246.888-.518 1.259-.567.771-1.534 1.225-2.615 1.225-2.024 0-3.459-1.523-3.459-3.643 0-2.05 1.44-3.53 3.439-3.53 1.515 0 2.655.852 3.061 2.271.013.046.015.093.007.14-.009.046-.027.09-.055.127-.028.038-.064.07-.106.09-.041.023-.088.035-.134.036l-1.433.031z"/>
  <path fill="#AB1A2D" d="M6.09 9.928v12.345c0 .137.055.27.152.367.098.097.23.152.367.152h12.345c.103 0 .203-.03.288-.088.086-.057.152-.138.191-.233.04-.095.05-.199.03-.3-.02-.1-.07-.193-.142-.265L6.975 9.562c-.073-.071-.165-.12-.265-.14-.1-.02-.204-.01-.299.03-.094.038-.175.104-.232.19-.057.084-.088.184-.089.286z"/>
  <path fill="#EA0A2A" d="M10.927 10.572l9.674 9.67c.073.073.166.122.266.142.1.02.205.01.3-.03.095-.039.176-.105.233-.19.057-.086.088-.186.088-.289V.533c0-.103-.03-.203-.088-.289-.057-.085-.138-.151-.233-.19-.095-.04-.2-.05-.3-.03-.1.02-.193.07-.266.142l-9.674 9.666c-.05.049-.088.106-.115.17-.026.063-.04.131-.04.2s.014.137.04.2c.027.064.066.121.115.17z"/>
  <path fill="#D6202A" d="M23.95 8.698v11.177c0 .103.03.203.088.288.057.086.138.152.233.192.095.039.199.05.3.03.1-.02.193-.07.265-.143L36.014 9.065c.072-.073.122-.166.142-.266.02-.1.01-.205-.03-.3-.039-.095-.105-.176-.19-.233-.086-.057-.186-.088-.289-.088H24.469c-.137 0-.27.055-.367.152-.097.098-.152.23-.152.368z"/>
  <path fill="#A32135" d="M26.481 22.792h14.012c.103 0 .203-.03.288-.088.086-.057.152-.138.191-.233.04-.094.05-.199.03-.3-.02-.1-.07-.193-.142-.265L33.854 14.9c-.048-.049-.105-.087-.169-.113-.063-.026-.13-.04-.199-.04-.068 0-.136.014-.199.04-.063.026-.12.064-.168.113l-7.006 7.006c-.073.073-.122.165-.142.266-.02.1-.01.205.03.3s.106.176.191.233c.086.057.186.087.29.087z"/>
  <path fill="#F12535" d="M26.113 25.752l7.927 7.928c.073.073.165.122.266.143.101.02.206.01.3-.03.096-.039.177-.106.234-.191.058-.086.088-.186.088-.29v-7.921c0-.069-.014-.136-.04-.2-.026-.062-.064-.12-.112-.168-.049-.048-.106-.086-.169-.112-.063-.027-.13-.04-.199-.04h-7.927c-.102.001-.2.032-.285.088-.085.057-.15.137-.19.231-.039.094-.05.197-.03.297.018.1.066.192.137.265z"/>
  <path fill="#911A1C" d="M31.716 34.299l-6.88-6.88c-.073-.073-.166-.123-.267-.143-.1-.02-.205-.01-.3.03-.094.04-.175.106-.232.191-.058.085-.088.186-.088.288v13.761c0 .103.03.203.087.289.058.085.139.151.233.19.095.04.2.05.3.03.101-.02.194-.07.266-.142l6.88-6.88c.098-.098.152-.23.152-.367 0-.138-.054-.27-.151-.367z"/>
  <path fill="#C20F2F" d="M21.484 38.446V27.788c0-.103-.03-.203-.088-.288-.057-.086-.138-.152-.233-.191-.095-.04-.199-.05-.3-.03-.1.02-.193.07-.265.142L9.938 38.079c-.073.073-.122.165-.143.266-.02.101-.01.206.03.3.039.096.106.177.191.234.086.058.186.088.29.088h10.657c.069 0 .136-.014.2-.04.063-.026.12-.064.168-.113.048-.048.087-.105.113-.169.026-.063.039-.13.039-.199z"/>
  <path fill="#D82336" d="M18.954 24.871H.914c-.102.001-.201.032-.285.089-.084.057-.15.137-.19.23-.038.095-.049.198-.03.297.019.1.067.192.137.265l9.02 9.02c.049.049.106.087.17.113.062.026.13.04.198.04.069 0 .136-.014.2-.04.063-.026.12-.064.168-.113l9.019-9.02c.07-.073.118-.165.137-.265.02-.1.009-.202-.03-.296-.04-.094-.105-.174-.19-.231-.083-.057-.182-.088-.284-.089z"/>
</svg>
